<svg fill="#000000" xmlns="http://www.w3.org/2000/svg" viewBox="0 0 26 26" width="52px" height="52px"><path d="M 1.8125 1 C 1.371094 1 1 1.363281 1 1.8125 L 1 24.1875 C 1 24.636719 1.371094 25 1.8125 25 L 24.1875 25 C 24.628906 25 25 24.636719 25 24.1875 L 25 1.8125 C 25 1.363281 24.628906 1 24.1875 1 Z M 11 5 C 14.3125 5 17 7.6875 17 11 C 17 12.296875 16.574219 13.488281 15.875 14.46875 L 21.125 19.6875 C 21.25 19.808594 21.226563 20.179688 20.6875 20.71875 C 20.148438 21.257813 19.828125 21.265625 19.6875 21.125 C 19.546875 20.984375 14.46875 15.875 14.46875 15.875 C 13.488281 16.574219 12.296875 17 11 17 C 7.6875 17 5 14.3125 5 11 C 5 7.6875 7.6875 5 11 5 Z M 11 7 C 8.789063 7 7 8.789063 7 11 C 7 13.210938 8.789063 15 11 15 C 13.210938 15 15 13.210938 15 11 C 15 8.789063 13.210938 7 11 7 Z"/></svg>